<?xml version="1.0" encoding="utf-8"?>
<!-- Generator: Adobe Illustrator 19.1.0, SVG Export Plug-In . SVG Version: 6.00 Build 0)  -->
<svg version="1.1" id="Layer_3" xmlns="http://www.w3.org/2000/svg" xmlns:xlink="http://www.w3.org/1999/xlink" x="0px" y="0px"
	 viewBox="0 0 800 800" style="enable-background:new 0 0 800 800;" xml:space="preserve">
<style type="text/css">
	.st0{fill:#8B8B8B;}
	.st1{fill:#BEBEBE;}
	.st2{fill:#323232;}
</style>
<g>
	<path class="st0" d="M256.5,245.3h-16.8c-4.4,0-8,3.6-8,8v16.8c0,4.4,3.6,8,8,8h16.8c4.4,0,8-3.6,8-8v-16.8
		C264.5,248.9,260.9,245.3,256.5,245.3"/>
	<path class="st0" d="M256.5,383.9h-16.8c-4.4,0-8,3.6-8,8v16.8c0,4.4,3.6,8,8,8h16.8c4.4,0,8-3.6,8-8v-16.8
		C264.5,387.5,260.9,383.9,256.5,383.9"/>
	<path class="st0" d="M256.5,522.4h-16.8c-4.4,0-8,3.6-8,8v16.8c0,4.4,3.6,8,8,8h16.8c4.4,0,8-3.6,8-8v-16.8
		C264.5,526,260.9,522.4,256.5,522.4"/>
	<path class="st1" d="M396.5,383.9H295.6c-4.4,0-8,3.6-8,8v16.8c0,4.4,3.6,8,8,8H524l0,0H396.5V383.9"/>
	<path class="st1" d="M717,383.9H396.5v32.8H524h193c0.2-5.4,0.3-10.9,0.3-16.4C717.3,394.8,717.2,389.3,717,383.9"/>
	<path class="st2" d="M533.4,677.6c-37.1,15.7-76.4,23.6-117.1,23.6c-40.6,0-80-8-117.1-23.6c-35.8-15.2-68-36.9-95.7-64.5
		c-27.6-27.6-49.4-59.8-64.5-95.7c-15.7-37.1-23.6-76.5-23.6-117.1c0-40.6,8-80,23.6-117.1c15.2-35.8,36.9-68,64.5-95.7
		c27.6-27.6,59.8-49.4,95.7-64.5c37.1-15.7,76.5-23.6,117.1-23.6c40.6,0,80,7.9,117.1,23.6l24.1-24.1
		c-42.8-20.1-90.7-31.3-141.1-31.3c-183.8,0-332.7,149-332.7,332.7C83.7,584,232.6,733,416.4,733c50.5,0,98.3-11.2,141.1-31.3
		L533.4,677.6z"/>
	<path class="st1" d="M372.5,522.4h-76.9c-4.4,0-8,3.6-8,8v16.8c0,4.4,3.6,8,8,8H524l0,0H372.5V522.4"/>
	<path class="st1" d="M691.5,522.4h-319v32.8H524h154C683,544.7,687.5,533.8,691.5,522.4"/>
	<path class="st1" d="M372.5,245.3h-76.9c-4.4,0-8,3.6-8,8v16.8c0,4.4,3.6,8,8,8H524l0,0H372.5V245.3"/>
	<path class="st1" d="M678,245.3H372.5v32.8H524h167.5C687.5,266.8,683,255.8,678,245.3"/>
</g>
</svg>
