<?xml version="1.0" encoding="utf-8"?>
<!-- Generator: Adobe Illustrator 19.1.0, SVG Export Plug-In . SVG Version: 6.00 Build 0)  -->
<svg version="1.1" id="Layer_3" xmlns="http://www.w3.org/2000/svg" xmlns:xlink="http://www.w3.org/1999/xlink" x="0px" y="0px"
	 viewBox="0 0 1889.1 800" style="enable-background:new 0 0 1889.1 800;" xml:space="preserve">
<style type="text/css">
	.st0{fill:#8B8B8B;}
	.st1{fill:#BEBEBE;}
	.st2{fill:#323232;}
</style>
<g>
	<path class="st0" d="M256.5,245.3h-16.8c-4.4,0-8,3.6-8,8v16.8c0,4.4,3.6,8,8,8h16.8c4.4,0,8-3.6,8-8v-16.8
		C264.5,248.9,260.9,245.3,256.5,245.3"/>
	<path class="st0" d="M256.5,383.9h-16.8c-4.4,0-8,3.6-8,8v16.8c0,4.4,3.6,8,8,8h16.8c4.4,0,8-3.6,8-8v-16.8
		C264.5,387.5,260.9,383.9,256.5,383.9"/>
	<path class="st0" d="M256.5,522.4h-16.8c-4.4,0-8,3.6-8,8v16.8c0,4.4,3.6,8,8,8h16.8c4.4,0,8-3.6,8-8v-16.8
		C264.5,526,260.9,522.4,256.5,522.4"/>
	<path class="st1" d="M396.5,383.9H295.6c-4.4,0-8,3.6-8,8v16.8c0,4.4,3.6,8,8,8H524l0,0H396.5V383.9"/>
	<path class="st1" d="M717,383.9H396.5v32.8H524h193c0.2-5.4,0.3-10.9,0.3-16.4C717.3,394.8,717.2,389.3,717,383.9"/>
	<path class="st2" d="M533.4,677.6c-37.1,15.7-76.4,23.6-117.1,23.6c-40.6,0-80-8-117.1-23.6c-35.8-15.2-68-36.9-95.7-64.5
		c-27.6-27.6-49.4-59.8-64.5-95.7c-15.7-37.1-23.6-76.5-23.6-117.1c0-40.6,8-80,23.6-117.1c15.2-35.8,36.9-68,64.5-95.7
		c27.6-27.6,59.8-49.4,95.7-64.5c37.1-15.7,76.5-23.6,117.1-23.6c40.6,0,80,7.9,117.1,23.6l24.1-24.1
		c-42.8-20.1-90.7-31.3-141.1-31.3c-183.8,0-332.7,149-332.7,332.7C83.7,584,232.6,733,416.4,733c50.5,0,98.3-11.2,141.1-31.3
		L533.4,677.6z"/>
	<path class="st1" d="M372.5,522.4h-76.9c-4.4,0-8,3.6-8,8v16.8c0,4.4,3.6,8,8,8H524l0,0H372.5V522.4"/>
	<path class="st1" d="M691.5,522.4h-319v32.8H524h154C683,544.7,687.5,533.8,691.5,522.4"/>
	<path class="st1" d="M372.5,245.3h-76.9c-4.4,0-8,3.6-8,8v16.8c0,4.4,3.6,8,8,8H524l0,0H372.5V245.3"/>
	<path class="st1" d="M678,245.3H372.5v32.8H524h167.5C687.5,266.8,683,255.8,678,245.3"/>
	<path class="st2" d="M1221.4,245.3c-85.8,0-158.3,70.1-158.3,153.2c0,42.1,16.4,81.5,46.2,111c29.8,29.5,69.6,45.7,112.1,45.7
		c41.9,0,81.5-16.2,111.5-45.6c30-29.4,46.5-68.2,46.5-109.1c0-41.3-16.5-80.3-46.5-109.6C1303,261.5,1263.4,245.3,1221.4,245.3z
		 M1221.4,523.7c-68.4,0-124-55.8-124-124.4c0-66.4,56.8-122.4,124-122.4c32.7,0,63.6,13,87.1,36.6c23.5,23.6,36.5,54.7,36.5,87.5
		c0,32.4-13,63.2-36.5,86.6C1285,510.8,1254.1,523.7,1221.4,523.7z"/>
	<polygon class="st2" points="874.5,522.5 874.5,245.4 838.8,245.4 838.8,555.2 1003,555.2 1003,522.5 	"/>
	<path class="st2" d="M1583.2,409.2V441h164.4c-12.5,46.5-62.9,82.6-116.3,82.6c-71.2,0-127-54-127-123c0-33.7,13-64.9,36.5-87.9
		c23.5-22.9,55.6-35.6,90.1-35.6c44.9,0,82.2,20.2,102.2,55.5l0.7,1.3h38.3l-1.3-3.4c-19.9-51.2-77.1-85.6-142.3-85.6
		c-89.3,0-159.2,68-159.2,154.8c0,42.5,16.8,81.9,47.3,111c30.4,29.1,71.6,45.1,116,45.1c41.5,0,80.4-15.5,109.6-43.6
		c28-26.9,44.6-62.6,46.8-100.3l0.2-2.6H1583.2z"/>
</g>
</svg>
